<?xml version="1.0" encoding="UTF-8" standalone="no"?>
<svg
   width="50.000004"
   height="48.83559"
   viewBox="0 0 50.000004 48.83559"
   fill="none"
   version="1.1"
   id="svg2"
   xml:space="preserve"
   xmlns="http://www.w3.org/2000/svg"
   xmlns:svg="http://www.w3.org/2000/svg"><defs
     id="defs2" /><path
     style="fill:#ffffff;fill-opacity:1;stroke-width:0.0978141"
     d="m 33.334278,48.70268 c -1.929888,-0.419518 -3.699717,-2.131542 -4.246629,-4.107933 -0.21645,-0.782191 -0.177549,-2.317378 0.07942,-3.134113 0.530621,-1.686501 1.983654,-3.152828 3.639898,-3.673198 1.098991,-0.345289 1.994235,-0.352481 3.455002,-0.02776 l 0.268989,0.05979 V 32.253391 26.68731 l 0.220082,-0.436435 c 0.167816,-0.33279 0.333883,-0.492835 0.699287,-0.673925 0.45675,-0.226363 0.51175,-0.231939 1.173768,-0.119001 1.418263,0.241951 2.984834,0.63241 4.389463,1.094049 6.151892,2.021846 8.287807,5.218291 6.221791,9.311046 -0.573806,1.136704 -1.636606,2.587902 -2.522977,3.444994 -0.569351,0.550545 -0.649899,0.392139 -0.347774,-0.683938 0.514144,-1.831215 0.499247,-3.096633 -0.04957,-4.211453 -0.753726,-1.531034 -2.393734,-2.320198 -5.25351,-2.527965 l -0.800316,-0.05815 -0.03953,6.041753 c -0.04317,6.598818 -0.05651,6.766622 -0.630554,7.930135 -0.323814,0.656328 -1.5437,1.93151 -2.179836,2.278645 -1.310289,0.715016 -2.691027,0.926886 -4.077004,0.625606 z M 21.76103,47.675439 C 15.102194,46.985252 9.3701595,43.919474 5.2398225,38.839069 2.6152245,35.610759 0.85825446,31.547644 0.17872646,27.134934 c -0.212708,-1.381278 -0.242261,-4.881899 -0.05243,-6.211195 C 0.94810646,15.168802 3.3345555,10.441251 7.3696515,6.5746623 11.070556,3.0283119 15.643616,0.84521478 20.880708,0.12472503 c 1.196102,-0.16455308 4.77012,-0.16678484 5.917753,-0.003706 4.422759,0.62851515 8.138229,2.14835537 11.554428,4.72642467 4.936667,3.7255065 8.30226,9.5033353 9.193525,15.7828413 0.252794,1.781089 0.217476,6.153038 -0.05324,6.591075 -0.0561,0.09077 -0.198175,0.04908 -0.560017,-0.164264 -0.831877,-0.490489 -2.275341,-1.102037 -3.75956,-1.592798 -1.411942,-0.466864 -4.487461,-1.165981 -5.129318,-1.165981 -0.948179,0 -2.033788,0.789915 -2.396108,1.743467 -0.183051,0.481745 -0.193161,0.766159 -0.193161,5.433274 v 4.924919 l -1.100409,0.05015 c -0.840473,0.03831 -1.285029,0.112541 -1.881982,0.314287 -2.765382,0.934566 -4.647108,3.520088 -4.647108,6.385199 0,1.191057 0.473377,2.799698 1.070743,3.63862 0.110463,0.15513 0.200841,0.304624 0.200841,0.33221 0,0.0704 -0.853719,0.246835 -2.005189,0.414424 -1.213722,0.176652 -4.218327,0.255874 -5.330867,0.14056 z m 4.548354,-14.551974 c 4.100939,-1.123565 7.035579,-4.576887 7.364785,-8.666471 0.245631,-3.051357 -0.75506,-5.804397 -2.878445,-7.919004 -2.796577,-2.785018 -7.011623,-3.625434 -10.685192,-2.130464 -3.350374,1.363445 -5.730612,4.58634 -6.065206,8.212424 -0.169759,1.839715 0.148901,3.579247 0.961476,5.248589 0.576544,1.184444 1.203019,2.028759 2.17875,2.936352 1.417109,1.31815 3.128542,2.141709 5.260176,2.531253 0.614906,0.112369 3.19578,-0.02969 3.863656,-0.212679 z m -3.130051,-8.293951 c -0.993937,-0.515879 -1.383233,-1.56686 -0.941004,-2.540424 0.492692,-1.08466 1.854792,-1.438064 2.827325,-0.733566 1.205737,0.873431 0.986745,2.699679 -0.392849,3.27611 -0.463384,0.193614 -1.118145,0.192685 -1.493472,-0.0021 z m -9.536584,-7.623383 c 0.47668,-1.112052 1.710559,-2.49024 3.059458,-3.417283 l 0.745981,-0.512683 -2.43168,-4.3263751 C 13.679085,6.5702835 12.561137,4.5997208 12.53218,4.5707623 12.43339,4.4719743 10.818035,5.4015427 9.8824375,6.0955756 c -1.803146,1.3375906 -3.669069,3.4433926 -4.88331,5.5111004 -0.71945,1.225136 -1.110005,2.051575 -0.991355,2.097768 0.05379,0.02094 2.144574,0.911826 4.646169,1.979737 2.5015955,1.067911 4.6049395,1.94641 4.6740995,1.952221 0.06916,0.0058 0.210778,-0.187811 0.314708,-0.430271 z m 27.681097,19.374594 v -3.591022 l 0.562431,0.06507 c 1.343166,0.155395 2.624676,0.666888 3.107009,1.240106 l 0.235894,0.280344 -0.35462,0.657037 c -0.738367,1.368042 -2.07317,3.271315 -3.135005,4.470147 l -0.415709,0.469344 z"
     id="path2" /></svg>
