<?xml version="1.0" encoding="UTF-8" standalone="no"?>
<!-- Created with Inkscape (http://www.inkscape.org/) -->

<svg
   width="94.399918mm"
   height="74.48864mm"
   viewBox="0 0 94.399918 74.48864"
   version="1.1"
   id="svg1"
   xml:space="preserve"
   xmlns="http://www.w3.org/2000/svg"
   xmlns:svg="http://www.w3.org/2000/svg"><defs
     id="defs1" /><g
     id="layer1"
     transform="translate(-397.09383,-100.54187)"><path
        style="fill:#000000"
       d="m 467.35102,174.87682 c -8.07042,-1.26256 -14.50349,-6.63059 -17.1069,-14.27474 -0.74932,-2.20015 -0.8704,-2.94542 -0.97113,-5.97739 -0.0968,-2.91404 -0.0262,-3.81548 0.44513,-5.67912 1.97185,-7.79763 7.745,-13.61083 15.48212,-15.58952 2.51789,-0.64392 7.06299,-0.71645 9.7119,-0.15497 3.51602,0.74528 7.28489,2.73666 9.96126,5.2633 8.46352,7.99002 8.86729,21.4941 0.89384,29.89463 -3.909,4.11837 -8.76311,6.32343 -14.62493,6.64361 -1.21775,0.0665 -2.92383,0.01 -3.79129,-0.1258 z m 5.91706,-3.17652 c 5.8763,-0.95346 11.04948,-4.94679 13.54865,-10.45861 1.24005,-2.73486 1.62709,-4.85322 1.49459,-8.18023 -0.19492,-4.89447 -1.69666,-8.23367 -5.36018,-11.91866 -2.34312,-2.35685 -4.46852,-3.62343 -7.80521,-4.65133 -2.50864,-0.77281 -6.65107,-0.83507 -9.26041,-0.13918 -6.37421,1.69993 -11.39141,6.71958 -13.13089,13.13729 -0.61818,2.28077 -0.62708,6.43174 -0.0187,8.73125 2.42233,9.15594 11.29177,14.97878 20.53216,13.47947 z m -11.56978,-8.80017 c -0.3164,-0.3368 -0.5731,-0.78328 -0.57043,-0.99219 0.006,-0.48756 5.3072,-6.07195 5.76186,-6.0699 0.41456,0.002 1.64162,1.18656 1.64162,1.58493 0,0.50454 -5.31375,6.08953 -5.79379,6.08953 -0.25518,0 -0.72285,-0.27557 -1.03926,-0.61237 z m 6.96542,-7.63787 c -0.85959,-1.02157 -0.75681,-2.14922 0.27898,-3.0607 0.78703,-0.69259 1.43783,-0.74723 2.48014,-0.20822 1.97879,1.02327 1.12545,4.11082 -1.13615,4.11082 -0.70298,0 -1.07843,-0.19476 -1.62297,-0.8419 z m 0.66138,-5.23748 c -0.32507,-0.20513 -0.41172,-1.15955 -0.47893,-5.27527 -0.0534,-3.27252 0.0184,-5.21259 0.20607,-5.56322 0.41512,-0.77565 1.49788,-0.97982 2.1356,-0.40269 0.48144,0.43569 0.51851,0.84089 0.51851,5.66699 0,3.68991 -0.0921,5.28985 -0.3175,5.51524 -0.37796,0.37796 -1.50711,0.41021 -2.06375,0.0589 z m -35.58646,23.22973 c -0.74486,-0.41675 -0.0761,0.20546 -19.71146,-18.33925 -15.2213,-14.37583 -16.93333,-16.0512 -16.93333,-16.5707 0,-0.30372 0.2743,-0.61403 0.67868,-0.76778 0.37328,-0.14192 3.47482,-0.25803 6.89231,-0.25803 5.03655,0 6.36065,-0.076 6.98975,-0.40136 1.61598,-0.83565 1.5788,-0.41722 1.57925,-17.77561 4.6e-4,-17.69705 -0.0517,-17.18582 1.85168,-18.13668 0.85597,-0.42761 2.37318,-0.46264 20.05068,-0.46302 21.07645,-4.6e-4 20.45471,-0.0478 21.48212,1.63731 0.51952,0.85212 0.53399,1.29588 0.53496,16.39785 l 9.9e-4,15.52204 -1.12448,0.86124 c -5.88982,4.51101 -9.44882,11.60279 -9.45686,18.844 -0.003,2.28868 0.43568,5.12587 1.08175,7.00371 0.27706,0.8053 0.50375,1.54903 0.50375,1.65272 0,0.26661 -10.76356,10.37598 -11.46226,10.76561 -0.72298,0.40316 -2.26092,0.41769 -2.95753,0.028 z"
       id="path2" /></g></svg>
