<?xml version="1.0" encoding="UTF-8" standalone="no"?>
<!-- Created with Inkscape (http://www.inkscape.org/) -->

<svg
   width="92.141418mm"
   height="100.05844mm"
   viewBox="0 0 92.141418 100.05844"
   version="1.1"
   id="svg1"
   xml:space="preserve"
   inkscape:version="1.4.2 (ebf0e940d0, 2025-05-08)"
   sodipodi:docname="drawing.svg"
   xmlns:inkscape="http://www.inkscape.org/namespaces/inkscape"
   xmlns:sodipodi="http://sodipodi.sourceforge.net/DTD/sodipodi-0.dtd"
   xmlns:xlink="http://www.w3.org/1999/xlink"
   xmlns="http://www.w3.org/2000/svg"
   xmlns:svg="http://www.w3.org/2000/svg"><sodipodi:namedview
     id="namedview1"
     pagecolor="#ffffff"
     bordercolor="#999999"
     borderopacity="1"
     inkscape:showpageshadow="2"
     inkscape:pageopacity="0"
     inkscape:pagecheckerboard="0"
     inkscape:deskcolor="#d1d1d1"
     inkscape:document-units="mm"
     inkscape:zoom="0.68328423"
     inkscape:cx="408.32202"
     inkscape:cy="-404.66322"
     inkscape:window-width="2048"
     inkscape:window-height="1090"
     inkscape:window-x="0"
     inkscape:window-y="0"
     inkscape:window-maximized="1"
     inkscape:current-layer="layer1"><inkscape:page
       x="0"
       y="3.0218859e-13"
       width="92.141418"
       height="100.05843"
       id="page2"
       margin="0"
       bleed="0" /></sodipodi:namedview><defs
     id="defs1"><linearGradient
       id="linearGradient14"
       inkscape:collect="always"><stop
         style="stop-color:#3b6bb0;stop-opacity:1;"
         offset="0"
         id="stop15" /><stop
         style="stop-color:#3e30f1;stop-opacity:1;"
         offset="1"
         id="stop14" /></linearGradient><linearGradient
       id="linearGradient12"
       inkscape:collect="always"><stop
         style="stop-color:#3a6fc6;stop-opacity:1;"
         offset="0"
         id="stop12" /><stop
         style="stop-color:#3ae6e6;stop-opacity:1;"
         offset="1"
         id="stop13" /></linearGradient><linearGradient
       inkscape:collect="always"
       xlink:href="#linearGradient12"
       id="linearGradient13"
       x1="115.7322"
       y1="78.835426"
       x2="213.50005"
       y2="131.33395"
       gradientUnits="userSpaceOnUse" /><linearGradient
       inkscape:collect="always"
       xlink:href="#linearGradient14"
       id="linearGradient15"
       x1="197.09648"
       y1="-188.77118"
       x2="143.57005"
       y2="-133.24664"
       gradientUnits="userSpaceOnUse" /></defs><g
     inkscape:label="Layer 1"
     inkscape:groupmode="layer"
     id="layer1"
     transform="translate(-109.62738,188.59584)"><rect
       style="font-variation-settings:'wght' 700;fill:#983bb0;fill-opacity:0;stroke:none;stroke-width:4.71375;stroke-linecap:round;stroke-linejoin:round;stroke-dasharray:none;stroke-opacity:0.599029;paint-order:markers fill stroke"
       id="rect15"
       width="108.60378"
       height="108.60378"
       x="101.39622"
       y="-192.8685"
       inkscape:export-filename="favicon.png"
       inkscape:export-xdpi="100"
       inkscape:export-ydpi="100" /><g
       id="g15"
       transform="translate(3.5244993,1.1880165)"><path
         id="path5"
         style="font-variation-settings:'wght' 700;baseline-shift:baseline;display:inline;overflow:visible;opacity:1;vector-effect:none;fill:url(#linearGradient13);fill-opacity:1;stroke-linecap:round;stroke-linejoin:round;paint-order:markers fill stroke;enable-background:accumulate;stop-color:#000000;stop-opacity:1"
         d="M 203.2422,93.169209 C 198.42432,77.70826 183.97999,66.457098 166.95109,66.457095 c -20.95865,-3e-6 -38.0017,17.043022 -38.0017,38.001665 0,20.95865 17.04315,38.0022 38.0018,38.0022 20.95865,-1e-5 38.0022,-17.04315 38.0022,-38.0018 0,-3.92974 -0.59937,-7.72204 -1.71119,-11.289951 z m -4.77018,1.464878 c 0.96274,3.102164 1.48122,6.401623 1.48122,9.824703 0,18.25645 -14.74573,33.00214 -33.00218,33.00215 -18.25645,0 -33.00202,-14.74522 -33.00202,-33.00167 0,-18.256446 14.74573,-33.002158 33.00218,-33.002156 14.83336,2e-6 27.34895,9.734262 31.5208,23.176973 z M 181.19698,79.307652 a 2,2 0 0 0 -0.99962,-1.158981 c -0.55428,-0.27906 -1.11674,-0.541768 -1.68753,-0.785268 a 2,2 0 0 0 -2.62517,1.054369 2,2 0 0 0 1.05487,2.62504 c 0.49329,0.210435 0.97969,0.436889 1.45871,0.678056 a 2,2 0 0 0 2.68553,-0.887037 2,2 0 0 0 0.11321,-1.526179 z m -8.13564,-2.463807 a 2,2 0 0 0 -1.63726,-1.500116 c -1.69131,-0.25979 -3.39244,-0.37094 -5.08414,-0.335779 -5.07507,0.105485 -10.06769,1.520827 -14.47659,4.150234 a 2,2 0 0 0 -0.6937,2.742076 2,2 0 0 0 2.74257,0.693562 c 5.08094,-3.030205 11.05676,-4.19498 16.9041,-3.296813 a 2,2 0 0 0 2.27944,-1.673806 2,2 0 0 0 -0.0344,-0.779358 z m 6.30883,23.756535 c -1.65185,-5.287469 -6.60203,-9.147318 -12.41902,-9.147321 -7.15937,-4e-6 -13.0058,5.846271 -13.0058,13.005641 1e-5,7.15938 5.84641,13.00631 13.00578,13.0063 7.15937,0 13.00566,-5.84677 13.00566,-13.00614 0,-1.34238 -0.20542,-2.6383 -0.58662,-3.85848 z m -3.81617,1.1718 c 0.26193,0.84759 0.40321,1.74972 0.40321,2.68677 0,4.99761 -4.0082,9.00583 -9.00581,9.00583 -4.99761,10e-6 -9.00582,-4.00819 -9.00582,-9.00581 0,-4.997607 4.00819,-9.005826 9.0058,-9.005823 4.06056,10e-7 7.46759,2.646156 8.60262,6.319033 z m -6.28871,2.06704 a 2.3958142,2.3958142 0 0 0 -2.31415,-1.77616 2.3958142,2.3958142 0 0 0 -2.39565,2.39616 2.3958142,2.3958142 0 0 0 2.39566,2.39578 2.3958142,2.3958142 0 0 0 2.39578,-2.39566 2.3958142,2.3958142 0 0 0 -0.0816,-0.62012 z M 145.27155,89.959424 a 2,2 0 0 0 -0.91787,-1.225288 2,2 0 0 0 -1.51592,-0.218683 2,2 0 0 0 -1.22466,0.918243 c -2.66601,4.495822 -4.08714,9.620838 -4.11873,14.847604 a 2,2 0 0 0 1.98783,2.01179 2,2 0 0 0 2.01216,-1.98845 c 0.0273,-4.517235 1.25641,-8.944317 3.56051,-12.829832 a 2,2 0 0 0 0.21668,-1.515384 z m 0.0747,50.863246 a 2,2 0 0 0 -0.8754,-1.25646 c -5.94929,-3.80961 -10.83414,-9.06656 -14.19365,-15.28113 a 2,2 0 0 0 -1.1873,-0.96692 2,2 0 0 0 -1.52349,0.15838 2,2 0 0 0 -0.80844,2.70916 c 3.68176,6.81069 9.0345,12.57487 15.55447,16.74991 a 2,2 0 0 0 2.76359,-0.60568 2,2 0 0 0 0.27022,-1.50726 z"
         transform="rotate(-75)" /><path
         id="path11"
         style="fill:url(#linearGradient15);fill-opacity:1"
         d="m 162.19889,-189.78118 c -0.36314,0.0209 -0.73062,0.16956 -1.45418,0.5147 -0.50781,0.24223 -2.89566,1.3785 -5.30665,2.52542 -6.6305,3.15415 -8.40714,4.20411 -9.91309,5.85856 l -0.71417,0.78445 -0.36897,0.67283 -0.36845,0.67231 -0.25167,1.02474 -0.25166,1.02474 0.0103,0.6966 c 0.006,0.38302 0.0827,1.07282 0.17054,1.53273 0.43334,2.26896 1.30472,3.93184 6.48849,12.3796 l 2.10168,3.42512 0.39119,0.35036 0.39119,0.35037 0.50488,0.15141 0.50539,0.15089 0.54674,-0.0956 0.54674,-0.0956 0.43046,-0.31419 0.43098,-0.31368 0.25735,-0.46147 0.25787,-0.46095 0.0362,-0.52813 0.0367,-0.52814 -0.18242,-0.45113 c -0.10004,-0.24826 -1.54704,-2.67969 -3.21582,-5.40329 -3.77968,-6.16876 -4.58943,-7.70173 -4.85552,-9.18962 l -0.10283,-0.57516 0.17208,-0.59273 0.17156,-0.59273 0.40463,-0.42426 c 1.14736,-1.20414 2.35937,-1.85478 11.9202,-6.39703 l 2.65255,-1.26038 0.37983,-0.36174 c 0.20863,-0.19893 0.4596,-0.53962 0.5581,-0.75706 l 0.1788,-0.39532 0.002,-0.53434 c 0.001,-0.29389 -0.0777,-0.72243 -0.1757,-0.95239 l -0.17828,-0.41807 -0.4284,-0.39429 -0.4284,-0.39429 -0.62528,-0.13849 c -0.29062,-0.0642 -0.50715,-0.0973 -0.72502,-0.0848 z m 12.623,2.44068 -0.48111,0.22427 -0.48162,0.22428 -0.30128,0.36535 c -0.16559,0.20088 -0.36346,0.55868 -0.43976,0.7953 -0.19986,0.61948 -12.65384,47.54501 -12.72894,47.96141 l -0.0631,0.34779 0.15761,0.54208 0.15762,0.54261 0.39894,0.42219 0.39894,0.4222 0.5209,0.18448 0.52038,0.18449 0.42685,-0.0506 c 0.84114,-0.0992 1.58585,-0.60418 1.97507,-1.33997 0.0582,-0.11012 2.96993,-10.97587 6.47041,-24.14582 l 6.36447,-23.94531 v -0.38447 c 0,-0.88435 -0.58949,-1.81834 -1.37253,-2.17403 l -0.38344,-0.17415 -0.56947,-0.001 z m 12.46952,22.01467 c -0.51331,0.0337 -0.96273,0.2492 -1.40043,0.65836 l -0.35192,0.32918 -0.19688,0.47749 -0.19741,0.47697 0.0191,0.4899 c 0.0262,0.67353 -0.0406,0.5504 2.97915,5.48752 4.08283,6.67508 5.025,8.43493 5.25807,9.82575 l 0.10026,0.59945 -0.16175,0.55862 -0.16226,0.55811 -0.39895,0.45217 c -0.96966,1.09736 -2.587,1.9934 -9.60716,5.3237 l -5.15938,2.4474 -0.29714,0.31212 c -0.99399,1.04427 -0.82667,2.74759 0.3576,3.64474 l 5.2e-4,5.2e-4 c 0.1334,0.101 0.47659,0.24068 0.76275,0.31058 l 0.52038,0.1266 0.48834,-0.0966 0.48886,-0.0971 4.86999,-2.31562 c 8.44601,-4.01577 10.39226,-5.21627 11.80806,-7.28483 l 0.45062,-0.65836 0.33383,-0.94516 0.33383,-0.94516 0.0692,-0.7798 c 0.25948,-2.90542 -0.43683,-4.47762 -6.09833,-13.76867 l -2.51458,-4.12688 -0.3886,-0.38757 -0.38809,-0.38809 -0.51315,-0.15193 c -0.36562,-0.10831 -0.69661,-0.15354 -1.00459,-0.13333 z" /></g></g></svg>
