<?xml version="1.0" encoding="UTF-8" standalone="no"?>
<!-- Created with Inkscape (http://www.inkscape.org/) -->

<svg
   width="157.95602mm"
   height="21.240047mm"
   viewBox="0 0 157.95602 21.240047"
   version="1.1"
   id="svg1"
   xml:space="preserve"
   xmlns:xlink="http://www.w3.org/1999/xlink"
   xmlns="http://www.w3.org/2000/svg"
   xmlns:svg="http://www.w3.org/2000/svg"><defs
     id="defs1"><linearGradient
       id="linearGradient27"><stop
         style="stop-color:#6497f0;stop-opacity:1;"
         offset="0"
         id="stop27" /><stop
         style="stop-color:#6497f0;stop-opacity:1;"
         offset="1"
         id="stop28" /></linearGradient><linearGradient
       xlink:href="#linearGradient27"
       id="linearGradient28"
       x1="22.73147"
       y1="67.320389"
       x2="45.680157"
       y2="67.320389"
       gradientUnits="userSpaceOnUse"
       gradientTransform="translate(217.67734)" /></defs><g
     id="layer1"
     transform="translate(-240.4088,-57.684338)"><g
       id="g28"><path
         id="path27"
         style="fill:#ffffff;fill-opacity:1"
         d="m 331.68983,57.684334 v 8.238774 8.238774 h 1.19063 1.19062 v -3.042709 -3.042708 h 1.81488 1.81436 l 1.55908,2.943489 c 0.85737,1.619025 1.69406,2.995595 1.85931,3.059245 0.16526,0.06364 0.78748,0.07863 1.38286,0.03307 l 1.08263,-0.08268 -1.71359,-3.159497 c -0.94253,-1.737568 -1.71411,-3.186252 -1.71411,-3.219442 0,-0.03319 0.40844,-0.312753 0.90744,-0.621151 2.02839,-1.253617 2.64367,-4.861299 1.19424,-7.002156 -1.11402,-1.645434 -2.39727,-2.06554 -6.76496,-2.213819 z m -49.06574,0.07906 c -3.05196,0.0095 -5.05671,1.199397 -6.4549,3.830774 -0.6483,1.220112 -0.98669,2.9637 -0.97669,4.497917 0.01,1.570783 0.2616,3.23821 1.05834,4.591968 0.84285,1.432097 2.16912,2.769615 3.70313,3.337264 1.39791,0.517283 4.45464,0.386709 5.69836,-0.243396 1.18557,-0.600646 2.57534,-1.908134 3.10679,-2.923336 1.13206,-2.162558 1.41773,-5.27951 0.71365,-7.788155 -0.95687,-3.409349 -3.41653,-5.313726 -6.84868,-5.303036 z m 89.54699,1.317233 v 1.455208 1.455208 h -0.92604 c -0.88194,0 -0.92604,0.0441 -0.92604,0.926042 0,0.881942 0.0441,0.926042 0.92604,0.926042 h 0.92604 v 4.197676 c 0,3.90377 0.0403,4.248498 0.57309,4.925798 0.31508,0.400559 0.94017,0.888201 1.38907,1.083654 0.91836,0.399852 2.235,0.474928 2.7373,0.156063 0.21847,-0.138702 0.27562,-0.502875 0.16536,-1.054199 -0.14691,-0.73451 -0.27571,-0.842326 -1.00821,-0.842326 -1.38945,0 -1.47536,-0.264415 -1.47536,-4.551143 v -3.915523 h 1.19063 c 1.18463,0 1.19062,-0.0049 1.19062,-0.926042 0,-0.921141 -0.006,-0.926042 -1.19062,-0.926042 h -1.19063 V 60.53584 59.080632 h -1.19062 z m -89.4519,0.786515 c 0.73697,-0.0091 1.45028,0.153419 2.04277,0.514697 3.78198,2.30614 3.68221,9.391781 -0.15968,11.332642 -2.38932,1.20705 -4.98692,0.313437 -6.27766,-2.159042 -0.96668,-1.85173 -0.85749,-5.606964 0.21601,-7.42642 0.82093,-1.391368 2.55721,-2.241898 4.17856,-2.261877 z m 51.3519,0.0072 h 2.05052 c 3.22372,6.47e-4 4.55145,0.943203 4.56045,3.237011 0.003,0.721167 -0.20462,1.221385 -0.76791,1.852084 -0.75526,0.845634 -0.82583,0.865767 -3.3073,0.955497 l -2.53576,0.09198 v -3.068547 z m 63.62402,1.852083 c -1.02345,0 -2.35251,0.648394 -2.98999,1.458826 l -0.57361,0.729154 v -0.961698 -0.961699 h -1.19063 -1.19062 v 6.085417 6.085417 h 1.19062 1.19063 l 10e-4,-4.034896 c 8.7e-4,-3.511271 0.0672,-4.143354 0.50901,-4.86792 0.5692,-0.933469 2.05077,-1.561188 3.0763,-1.303797 0.61531,0.154427 0.64699,0.102811 0.64699,-1.033528 0,-1.103036 -0.0517,-1.195276 -0.66973,-1.195276 z m -99.47558,0.153996 c -1.08389,0.01185 -1.99252,0.447863 -2.75538,1.316715 l -0.81598,0.928626 v -1.067119 -1.067635 h -1.19062 -1.19063 v 8.466667 l 5.2e-4,8.466667 h 1.19063 1.19062 l 0.007,-3.373438 0.007,-3.373437 0.72037,0.833024 c 0.93668,1.083222 1.63205,1.415934 2.96055,1.415934 3.14061,0 5.03928,-2.432651 5.03328,-6.449736 -0.005,-3.318757 -1.39054,-5.379099 -4.01422,-5.967077 -0.40134,-0.08994 -0.78179,-0.133142 -1.14309,-0.129191 z m 12.64833,0.0041 c -2.97409,-0.03547 -5.20487,2.088029 -5.55574,5.48752 -0.30295,2.935318 0.97082,5.537464 3.20808,6.553605 2.66126,1.208719 6.58675,0.0426 7.37112,-2.18953 0.26712,-0.760174 -1.99278,-1.122845 -2.28306,-0.366386 -0.27401,0.714067 -1.77001,1.272559 -3.02876,1.13068 -1.47601,-0.166368 -2.64904,-1.247865 -2.87682,-2.651518 l -0.15917,-0.978751 h 4.43074 4.43074 l -0.18501,-1.521354 c -0.37463,-3.075972 -1.69829,-4.819182 -4.03541,-5.314405 -0.4519,-0.09575 -0.89184,-0.144794 -1.31671,-0.149861 z m 73.65597,0.02222 c -2.19577,-0.107067 -4.31507,1.019927 -5.17747,2.854606 -1.67145,3.55585 -0.52929,7.805038 2.46342,9.164298 2.66127,1.208719 6.58676,0.0426 7.37113,-2.18953 0.34462,-0.980686 -1.71717,-1.024568 -2.55179,-0.05426 -0.71343,0.829405 -2.79497,1.135847 -3.86643,0.568957 -0.83996,-0.444412 -1.86035,-1.95722 -1.86035,-2.758488 V 68.87014 h 4.40335 4.40335 l -0.16588,-1.591118 c -0.30367,-2.905277 -1.73438,-4.746833 -4.07727,-5.249291 -0.31338,-0.06721 -0.62838,-0.107695 -0.94206,-0.12299 z m -59.97205,0.02325 c -1.44929,0 -2.28207,0.358986 -3.11351,1.342554 l -0.59428,0.702799 -10e-4,-0.992187 -0.001,-0.992188 h -1.19062 -1.19063 v 6.085417 l -5.1e-4,6.085417 h 1.19062 1.19063 v -4.260206 -4.259688 l 0.89968,-0.899687 c 1.02022,-1.020212 2.35343,-1.207414 3.45561,-0.485241 0.98164,0.643194 1.20096,1.735207 1.20096,5.975346 v 3.929476 h 1.19062 1.19063 l -0.0114,-3.902605 c -0.006,-2.146432 -0.11157,-4.421818 -0.23409,-5.056022 -0.421,-2.179214 -1.75224,-3.273185 -3.98167,-3.273185 z m 25.92348,0.01912 c -1.84574,0 -3.17837,0.565403 -4.17081,1.769401 -0.99535,1.207531 -1.38624,2.527814 -1.37924,4.652946 0.009,2.646719 1.26095,4.752825 3.38636,5.69681 1.17201,0.520539 3.44506,0.425316 4.73356,-0.198437 2.04,-0.987549 3.05299,-2.961177 3.03599,-5.913851 -0.0214,-3.707646 -2.16707,-6.006869 -5.60586,-6.006869 z m 7.89564,0.04186 0.0873,4.828646 c 0.0995,5.512464 0.29286,6.136613 2.1947,7.078121 h 5.2e-4 c 1.81072,0.896104 3.63808,0.523894 4.89117,-0.996322 l 0.80512,-0.977201 v 1.118795 1.118795 h 1.05833 1.05834 v -6.085417 -6.085417 h -1.05834 -1.05833 l -5.2e-4,3.505729 c -0.002,4.090074 -0.24779,5.207242 -1.34978,6.13451 -0.90799,0.764018 -1.77206,0.855467 -2.84376,0.301273 -1.18,-0.610203 -1.36167,-1.389428 -1.36167,-5.852873 v -4.088639 h -1.2113 z m -7.86205,1.810226 c 0.66477,-0.04521 1.33517,0.133774 1.90944,0.585494 0.73642,0.579273 1.50087,2.665736 1.49087,4.068485 -0.007,1.003204 -0.79348,2.764299 -1.52394,3.413745 -0.63077,0.560814 -2.31578,0.808135 -3.13004,0.459404 -1.47162,-0.630261 -2.39799,-3.209284 -1.97198,-5.489588 0.32759,-1.753483 1.76315,-2.938089 3.22565,-3.03754 z m 33.6889,0.02325 c 1.35539,0.02491 2.67276,0.852876 2.95641,2.333708 l 0.16433,0.859896 h -3.20808 c -3.58218,0 -3.69612,-0.07387 -2.67632,-1.723926 0.63224,-1.022982 1.70947,-1.48905 2.76366,-1.469678 z m -73.441,0.0031 c 1.40627,-0.0077 2.81778,0.81634 3.10782,2.330607 l 0.16433,0.859896 h -3.20807 c -3.52983,0 -3.60871,-0.04508 -2.80655,-1.596285 0.55805,-1.079139 1.64871,-1.588203 2.74247,-1.594218 z m -12.79353,0.0155 c 1.59515,0 2.60909,0.991335 3.01532,2.94814 0.52222,2.51552 -0.27505,4.696974 -1.97663,5.407939 -1.09613,0.457997 -1.34172,0.455809 -2.44429,-0.02326 -1.11887,-0.486144 -1.89524,-2.135566 -1.90324,-4.04213 -0.0111,-2.669688 1.23889,-4.290694 3.30884,-4.290694 z" /><path
         style="fill:url(#linearGradient28);fill-opacity:1"
         d="m 256.54839,75.875909 c 0,-0.884758 -0.0583,-0.966903 -0.58821,-0.828336 -0.94356,0.246746 -4.17527,-0.318343 -5.63038,-0.984515 -0.73665,-0.337251 -2.40703,-1.328227 -3.71195,-2.202167 -2.42345,-1.62305 -3.11046,-1.955367 -5.08456,-2.459494 l -1.12448,-0.287157 v -1.831687 -1.831688 l 1.12448,-0.287718 c 2.1243,-0.543542 2.57952,-0.765728 5.6721,-2.768455 3.4354,-2.22474 5.05173,-2.820732 7.76311,-2.862513 l 1.81882,-0.02803 0.079,-0.860696 0.079,-0.860697 3.08853,1.775054 c 1.69868,0.97628 3.16169,1.848223 3.25112,1.937651 0.14134,0.141346 -5.94203,3.670422 -6.32703,3.670422 -0.0797,0 -0.14491,-0.416719 -0.14491,-0.926042 v -0.926042 l -1.38906,0.0086 c -0.76399,0.0048 -1.99432,0.217868 -2.73407,0.473594 -1.23324,0.426319 -5.63668,3.154168 -5.65751,3.504723 -0.005,0.08277 0.98632,0.83352 2.20276,1.668328 2.41817,1.659524 4.06409,2.282218 6.03243,2.282218 1.24108,0 1.28086,-0.02417 1.28086,-0.778135 0,-0.427975 0.11352,-0.848293 0.25227,-0.934041 0.17922,-0.110766 5.76784,2.803007 6.55531,3.417784 0.056,0.04374 -1.41388,0.892538 -5.28622,3.05254 l -1.52136,0.848615 z"
         id="path18" /></g></g></svg>
